<?xml version="1.0"?>
<svg xmlns="http://www.w3.org/2000/svg" xmlns:xlink="http://www.w3.org/1999/xlink" xmlns:svgjs="http://svgjs.com/svgjs" version="1.1" width="512" height="512" x="0" y="0" viewBox="0 0 24 24" style="enable-background:new 0 0 512 512" xml:space="preserve" class=""><g><g xmlns="http://www.w3.org/2000/svg"><path d="m22.5 12.5h-15c-.276 0-.5-.224-.5-.5s.224-.5.5-.5h15c.276 0 .5.224.5.5s-.224.5-.5.5z" fill="#eeeeee" data-original="#000000"/></g><g xmlns="http://www.w3.org/2000/svg"><path d="m11.5 16.5c-.128 0-.256-.049-.354-.146l-4-4c-.195-.195-.195-.512 0-.707l4-4c.195-.195.512-.195.707 0s.195.512 0 .707l-3.646 3.646 3.646 3.646c.195.195.195.512 0 .707-.097.098-.225.147-.353.147z" fill="#eeeeee" data-original="#000000"/></g><g xmlns="http://www.w3.org/2000/svg"><path d="m11 23c-6.065 0-11-4.935-11-11s4.935-11 11-11c4.655 0 8.823 2.947 10.372 7.333.092.261-.045.546-.305.638-.26.09-.545-.045-.638-.305-1.408-3.987-5.197-6.666-9.429-6.666-5.514 0-10 4.486-10 10s4.486 10 10 10c4.232 0 8.021-2.679 9.428-6.667.093-.26.378-.396.638-.305.26.092.397.377.305.638-1.548 4.387-5.716 7.334-10.371 7.334z" fill="#eeeeee" data-original="#000000"/></g></g></svg>
